HIERARCHY
ROOT Hips
{
	OFFSET	0.00	0.00	0.00
	CHANNELS 6 Xposition Yposition Zposition Zrotation Xrotation Yrotation
	JOINT LeftUpLeg
	{
		OFFSET	 0.126116	-0.014019	-0.065224
		CHANNELS 3 Zrotation Xrotation Yrotation
		JOINT LeftLeg
		{
			OFFSET	 0.000000	 0.000000	 0.569914
			CHANNELS 3 Zrotation Xrotation Yrotation
			JOINT LeftFoot
			{
				OFFSET	 0.000000	 0.000000	 0.544423
				CHANNELS 3 Zrotation Xrotation Yrotation
				JOINT LeftToeBase
				{
					OFFSET	 0.000000	 0.000000	 0.207117
					CHANNELS 3 Zrotation Xrotation Yrotation
					End Site
					{
						OFFSET	 0.000000	 0.000000	 0.207117
					}
				}
			}
		}
	}
	JOINT RightUpLeg
	{
		OFFSET	-0.124023	-0.008373	-0.065224
		CHANNELS 3 Zrotation Xrotation Yrotation
		JOINT RightLeg
		{
			OFFSET	 0.000000	 0.000000	 0.570047
			CHANNELS 3 Zrotation Xrotation Yrotation
			JOINT RightFoot
			{
				OFFSET	 0.000000	 0.000000	 0.544354
				CHANNELS 3 Zrotation Xrotation Yrotation
				JOINT RightToeBase
				{
					OFFSET	 0.000000	 0.000000	 0.207540
					CHANNELS 3 Zrotation Xrotation Yrotation
					End Site
					{
						OFFSET	 0.000000	 0.000000	 0.207540
					}
				}
			}
		}
	}
	JOINT Spine
	{
		OFFSET	 0.000184	-0.007763	 0.117403
		CHANNELS 3 Zrotation Xrotation Yrotation
		JOINT Spine1
		{
			OFFSET	 0.000000	 0.000000	 0.137269
			CHANNELS 3 Zrotation Xrotation Yrotation
			JOINT Spine2
			{
				OFFSET	 0.000000	 0.000000	 0.156879
				CHANNELS 3 Zrotation Xrotation Yrotation
				JOINT LeftShoulder
				{
					OFFSET	 0.080501	-0.002496	 0.160144
					CHANNELS 3 Zrotation Xrotation Yrotation
					JOINT LeftArm
					{
						OFFSET	 0.000000	 0.000000	 0.164363
						CHANNELS 3 Zrotation Xrotation Yrotation
						JOINT LeftForeArm
						{
							OFFSET	 0.000000	 0.000000	 0.364576
							CHANNELS 3 Zrotation Xrotation Yrotation
							JOINT LeftHand
							{
								OFFSET	 0.000000	 0.000000	 0.360812
								CHANNELS 3 Zrotation Xrotation Yrotation
								JOINT LeftHandIndex1
								{
									OFFSET	 0.000000	 0.000000	 0.086006
									CHANNELS 3 Zrotation Xrotation Yrotation
									JOINT LeftHandIndex2
									{
										OFFSET	 0.000000	 0.000000	 0.047236
										CHANNELS 3 Zrotation Xrotation Yrotation
										JOINT LeftHandIndex3
										{
											OFFSET	-0.004284	-0.000551	 0.038166
											CHANNELS 3 Zrotation Xrotation Yrotation
											End Site
											{
												OFFSET	-0.004284	-0.000551	 0.038166
											}
										}
									}
								}
							}
						}
					}
				}
				JOINT Neck
				{
					OFFSET	 0.000000	 0.000000	 0.176489
					CHANNELS 3 Zrotation Xrotation Yrotation
					JOINT Head
					{
						OFFSET	 0.000000	-0.001747	 0.077940
						CHANNELS 3 Zrotation Xrotation Yrotation
						End Site
						{
							OFFSET	 0.000000	-0.001747	 0.077940
						}
					}
				}
				JOINT RightShoulder
				{
					OFFSET	-0.080363	 0.000306	 0.159706
					CHANNELS 3 Zrotation Xrotation Yrotation
					JOINT RightArm
					{
						OFFSET	 0.000000	 0.000000	 0.164196
						CHANNELS 3 Zrotation Xrotation Yrotation
						JOINT RightForeArm
						{
							OFFSET	 0.000000	 0.000000	 0.365611
							CHANNELS 3 Zrotation Xrotation Yrotation
							JOINT RightHand
							{
								OFFSET	 0.000000	 0.000000	 0.360648
								CHANNELS 3 Zrotation Xrotation Yrotation
								JOINT RightHandIndex1
								{
									OFFSET	 0.000000	 0.000000	 0.069977
									CHANNELS 3 Zrotation Xrotation Yrotation
									JOINT RightHandIndex2
									{
										OFFSET	 0.000000	 0.000000	 0.052305
										CHANNELS 3 Zrotation Xrotation Yrotation
										JOINT RightHandIndex3
										{
											OFFSET	 0.009002	-0.000782	 0.042196
											CHANNELS 3 Zrotation Xrotation Yrotation
											End Site
											{
												OFFSET	 0.009002	-0.000782	 0.042196
											}
										}
									}
								}
							}
						}
					}
				}
			}
		}
	}
}
MOTION
Frames:    5
Frame Time: 0.03333334
-0.000104	 0.043626	 1.276439	-0.084664	 2.455155	 0.462949	-2.657621	-5.559676	 178.856200	 2.282334	-13.038960	 0.609330	-0.069223	 71.089250	-0.114790	-2.385833	 28.452750	 0.000004	 10.230410	-5.172933	-179.000600	-0.792073	-11.663250	 0.881870	 5.310800	 70.112240	 1.019353	 2.384659	 28.388700	-0.000001	-6.814191	 6.358863	 1.363340	-3.072909	-3.084077	-0.162891	 9.538956	 5.918529	-0.608609	-91.173600	 69.815530	-177.836200	-8.182734	 3.401311	-11.530320	 24.807440	-5.681923	-21.433510	-11.065120	-31.692210	-5.177690	-2.027600	 6.559038	 9.033609	-5.188889	 0.308190	 3.541030	-5.234859	 0.342567	 0.430617	 4.361481	 17.714820	-6.663489	 4.677192	-13.618140	 2.188315	 89.020320	 68.720940	 177.377300	 8.917453	 7.911373	 4.125165	-25.430220	-10.010440	 28.664040	 8.998770	-31.698320	 7.547493	 1.803333	 3.979147	-15.098590	 4.898592	 3.004813	-9.310344	 5.224449	 0.395017	 2.014677
-0.000257	 0.045035	 1.276889	-0.071515	 2.710335	 0.471823	-2.663469	-5.836063	 178.813000	 2.224913	-12.880130	 0.589211	-0.078245	 70.827650	-0.045562	-2.385833	 28.452750	 0.000004	 10.190990	-5.416780	-178.944100	-0.785154	-11.448940	 0.867267	 5.304139	 69.853880	 1.012927	 2.384659	 28.388700	-0.000001	-7.131729	 6.548656	 1.410346	-3.108389	-3.520277	-0.178113	 9.593946	 6.586308	-0.701720	-91.105920	 69.355460	-177.681500	-7.668314	 3.588762	-11.904010	 24.427470	-5.758765	-22.345680	-10.969340	-33.403000	-5.636399	-2.027600	 6.559038	 9.033609	-5.188889	 0.308190	 3.541030	-5.234859	 0.342567	 0.430617	 4.503013	 18.916840	-7.044420	 4.794862	-14.537690	 2.214954	 88.927960	 68.088550	 177.191500	 8.441118	 8.048018	 4.562289	-25.282960	-10.117190	 29.228460	 8.793388	-33.174060	 7.653800	 1.803333	 3.979147	-15.098590	 4.898592	 3.004813	-9.310344	 5.224449	 0.395017	 2.014677
-0.000558	 0.047871	 1.277465	-0.041528	 3.200756	 0.501203	-2.691315	-6.473004	 178.713700	 2.156921	-12.777480	 0.569526	-0.138215	 70.464170	 0.089481	-2.385833	 28.452750	 0.000004	 10.110880	-5.975100	-178.856000	-0.775522	-11.203400	 0.850795	 5.316796	 69.440800	 0.977423	 2.384659	 28.388700	-0.000001	-7.637733	 6.876581	 1.480118	-3.151523	-4.217862	-0.201244	 9.622374	 7.672802	-0.852529	-90.997020	 68.626460	-177.447500	-6.695128	 4.272452	-12.782340	 23.782970	-5.786852	-23.622080	-11.018360	-36.395570	-6.615633	-2.027600	 6.559038	 9.033609	-5.188889	 0.308190	 3.541030	-5.234859	 0.342567	 0.430617	 4.695167	 20.891220	-7.663944	 4.999088	-16.089690	 2.279646	 88.766780	 66.997250	 176.891300	 7.556330	 8.599472	 5.436816	-25.018050	-10.207830	 30.010490	 8.513549	-35.759380	 7.948103	 1.803333	 3.979147	-15.098590	 4.898592	 3.004813	-9.310344	 5.224449	 0.395017	 2.014677
-0.000991	 0.051606	 1.277784	 0.012357	 3.861072	 0.557827	-2.832815	-7.492094	 178.549900	 2.097569	-12.984980	 0.580504	-0.322405	 70.263900	 0.280689	-2.385833	 28.452750	 0.000004	 9.994401	-6.865437	-178.774400	-0.774087	-11.163640	 0.848092	 5.368234	 69.055050	 0.907727	 2.384659	 28.388700	-0.000001	-8.075364	 7.221092	 1.535392	-3.147020	-4.932175	-0.244775	 9.484796	 8.710295	-0.976358	-90.910770	 68.023640	-177.279800	-5.604884	 5.559953	-14.026630	 23.076090	-5.647661	-24.504700	-11.564500	-39.794280	-8.064684	-2.027600	 6.559038	 9.033609	-5.188889	 0.308190	 3.541030	-5.234859	 0.342567	 0.430617	 4.722169	 22.733820	-8.195554	 5.220932	-17.663030	 2.402431	 88.600860	 65.832180	 176.616600	 6.464275	 9.546019	 6.549556	-24.642770	-10.110500	 30.546460	 8.402023	-38.672210	 8.511905	 1.803333	 3.979147	-15.098590	 4.898592	 3.004813	-9.310344	 5.224449	 0.395017	 2.014677
-0.001387	 0.055289	 1.277918	 0.060441	 4.464948	 0.608734	-2.848619	-8.502920	 178.411600	 2.165604	-13.297740	 0.597278	-0.479322	 70.122600	 0.437678	-2.385833	 28.452750	 0.000004	 9.890995	-7.766097	-178.704100	-0.771473	-11.269050	 0.856512	 5.458769	 68.752850	 0.795037	 2.384659	 28.388700	-0.000001	-8.450101	 7.548360	 1.577030	-3.121637	-5.338040	-0.236343	 9.331106	 9.561418	-1.084925	-90.830290	 67.475720	-177.129000	-4.580268	 6.829276	-15.577890	 22.486930	-5.415734	-24.867470	-12.281830	-42.742730	-9.605135	-2.027600	 6.559038	 9.033609	-5.188889	 0.308190	 3.541030	-5.234859	 0.342567	 0.430617	 4.762926	 24.410390	-8.677311	 5.402127	-19.080470	 2.521128	 88.445110	 64.773530	 176.370900	 5.457652	 10.525460	 7.854133	-24.360260	-9.942281	 30.762800	 8.390384	-41.222640	 9.152389	 1.803333	 3.979147	-15.098590	 4.898592	 3.004813	-9.310344	 5.224449	 0.395017	 2.014677
